HIERARCHY
ROOT pelvis
{
  OFFSET 0 100 0
  CHANNELS 6 Xposition Yposition Zposition Zrotation Xrotation Yrotation
  JOINT pelvis_right_femur
  {
    OFFSET -10.78128 -3.44521 -0.5502486
    CHANNELS 3 Zrotation Xrotation Yrotation
    JOINT right_femur_tibia
    {
      OFFSET -0.8047443 -44.0398 -0.1307829
      CHANNELS 3 Zrotation Xrotation Yrotation
      JOINT right_tibia_foot
      {
        OFFSET 3.006224 -47.83518 -5
        CHANNELS 3 Zrotation Xrotation Yrotation
        End Site
        {
          OFFSET 0 -5 15
        }
      }
    }
  }
  JOINT pelvis_left_femur
  {
    OFFSET 10.78128 -3.44521 -0.5502486
    CHANNELS 3 Zrotation Xrotation Yrotation
    JOINT left_femur_tibia
    {
      OFFSET 0.8047443 -44.0398 -0.1307829
      CHANNELS 3 Zrotation Xrotation Yrotation
      JOINT left_tibia_foot
      {
        OFFSET -4.370144 -48.10324 -4.275266
        CHANNELS 3 Zrotation Xrotation Yrotation
        End Site
        {
          OFFSET 0 -5 15
        }
      }
    }
  }
  JOINT pelvis_spine1
  {
    OFFSET 0 6.468898 -3.129235
    CHANNELS 3 Zrotation Xrotation Yrotation
    JOINT spine1
    {
      OFFSET 0 23.15396 4.99043
      CHANNELS 3 Zrotation Xrotation Yrotation
      JOINT spine2
      {
        OFFSET 0 20.79997 -5.064912
        CHANNELS 3 Zrotation Xrotation Yrotation
        JOINT neck
        {
          OFFSET 0 14.38658 9.616178
          CHANNELS 3 Zrotation Xrotation Yrotation
          End Site
          {
            OFFSET 0 20 0
          }
        }
      }
      JOINT right_manubrium
      {
        OFFSET -5.722621 16.35077 3.967754
        CHANNELS 3 Zrotation Xrotation Yrotation
        JOINT right_clavicle
        {
          OFFSET -13.16364 1.694482 -4.693211
          CHANNELS 3 Zrotation Xrotation Yrotation
          JOINT right_humerus
          {
            OFFSET -28.5034 -0.3100689 -2.792744
            CHANNELS 3 Zrotation Xrotation Yrotation
            JOINT right_radius
            {
              OFFSET -25.15693 0.02248979 -1.271978
              CHANNELS 3 Zrotation Xrotation Yrotation
              End Site
              {
                OFFSET -15 0 0
              }
            }
          }
        }
      }
      JOINT left_manubrium
      {
        OFFSET 5.722621 16.35077 3.967754
        CHANNELS 3 Zrotation Xrotation Yrotation
        JOINT left_clavicle
        {
          OFFSET 13.16364 1.694482 -4.693211
          CHANNELS 3 Zrotation Xrotation Yrotation
          JOINT left_humerus
          {
            OFFSET 29.39168 -1.063119 -2.237045
            CHANNELS 3 Zrotation Xrotation Yrotation
            JOINT left_radius
            {
              OFFSET 24.59957 -0.9528479 0.9047498
              CHANNELS 3 Zrotation Xrotation Yrotation
              End Site
              {
                OFFSET 15 -0 -0
              }
            }
          }
        }
      }
    }
  }
}
MOTION
Frames: 13
Frame Time: 0.0416666666667
11.32359 89.20591 406.6511 -7.29566 -18.74232 -20.92825 10.49774 -6.23204 6.915738 -0 23.76874 -0 -0.434814 -7.458063 -13.0104 2.488157 5.427053 3.805175 -0 33.87104 -0 7.55128 -0.4428486 9.277969 4.816605 -5.842386 9.970664 0.6956193 23.61501 -10.72129 1.013011 15.98782 -1.397871 -2.314895 -10.35854 1.920867 -8.485544 -37.12856 13.93624 102.8938 -5.760981 -20.32284 -0 0 34.64018 -29.14839 24.8377 12.35922 -3.321789 -29.48909 -18.53032 -84.3053 -2.047651 37.00525 0 0 -30.34294 4.317035 11.74386 5.76264
9.993877 89.23458 413.035 -7.5764 -18.63399 -21.80441 10.49774 -6.23204 6.915738 -0 23.76874 -0 -0.434814 -7.458063 -13.0104 2.488157 5.427053 3.805175 -0 33.87104 -0 7.55128 -0.4428486 9.277969 4.816605 -5.842386 9.970664 0.6956193 23.61501 -10.72129 1.013011 15.98782 -1.397871 -2.314895 -10.35854 1.920867 -8.485544 -37.12856 13.93624 102.8938 -5.760981 -20.32284 -0 0 34.64018 -29.14839 24.8377 12.35922 -3.321789 -29.48909 -18.53032 -84.3053 -2.047651 37.00525 0 0 -30.34294 4.317035 11.74386 5.76264
8.57105 89.26325 419.3987 -7.855178 -18.52162 -22.67942 10.49774 -6.23204 6.915738 -0 23.76874 -0 -0.434814 -7.458063 -13.0104 2.488157 5.427053 3.805175 -0 33.87104 -0 7.55128 -0.4428486 9.277969 4.816605 -5.842386 9.970664 0.6956193 23.61501 -10.72129 1.013011 15.98782 -1.397871 -2.314895 -10.35854 1.920867 -8.485544 -37.12856 13.93624 102.8938 -5.760981 -20.32284 -0 0 34.64018 -29.14839 24.8377 12.35922 -3.321789 -29.48909 -18.53032 -84.3053 -2.047651 37.00525 0 0 -30.34294 4.317035 11.74386 5.76264
7.055414 89.29191 425.7409 -8.13193 -18.40522 -23.55327 10.49774 -6.23204 6.915738 -0 23.76874 -0 -0.434814 -7.458063 -13.0104 2.488157 5.427053 3.805175 -0 33.87104 -0 7.55128 -0.4428486 9.277969 4.816605 -5.842386 9.970664 0.6956193 23.61501 -10.72129 1.013011 15.98782 -1.397871 -2.314895 -10.35854 1.920867 -8.485544 -37.12856 13.93624 102.8938 -5.760981 -20.32284 -0 0 34.64018 -29.14839 24.8377 12.35922 -3.321789 -29.48909 -18.53032 -84.3053 -2.047651 37.00525 0 0 -30.34294 4.317035 11.74386 5.76264
5.447293 89.32058 432.0604 -8.40659 -18.28484 -24.42592 10.49774 -6.23204 6.915738 -0 23.76874 -0 -0.434814 -7.458063 -13.0104 2.488157 5.427053 3.805175 -0 33.87104 -0 7.55128 -0.4428486 9.277969 4.816605 -5.842386 9.970664 0.6956193 23.61501 -10.72129 1.013011 15.98782 -1.397871 -2.314895 -10.35854 1.920867 -8.485544 -37.12856 13.93624 102.8938 -5.760981 -20.32284 -0 0 34.64018 -29.14839 24.8377 12.35922 -3.321789 -29.48909 -18.53032 -84.3053 -2.047651 37.00525 0 0 -30.34294 4.317035 11.74386 5.76264
3.747031 89.34925 438.3556 -8.679096 -18.1605 -25.29733 10.49774 -6.23204 6.915738 -0 23.76874 -0 -0.434814 -7.458063 -13.0104 2.488157 5.427053 3.805175 -0 33.87104 -0 7.55128 -0.4428486 9.277969 4.816605 -5.842386 9.970664 0.6956193 23.61501 -10.72129 1.013011 15.98782 -1.397871 -2.314895 -10.35854 1.920867 -8.485544 -37.12856 13.93624 102.8938 -5.760981 -20.32284 -0 0 34.64018 -29.14839 24.8377 12.35922 -3.321789 -29.48909 -18.53032 -84.3053 -2.047651 37.00525 0 0 -30.34294 4.317035 11.74386 5.76264
1.954989 89.37792 444.6254 -8.949386 -18.03224 -26.16749 10.49774 -6.23204 6.915738 -0 23.76874 -0 -0.434814 -7.458063 -13.0104 2.488157 5.427053 3.805175 -0 33.87104 -0 7.55128 -0.4428486 9.277969 4.816605 -5.842386 9.970664 0.6956193 23.61501 -10.72129 1.013011 15.98782 -1.397871 -2.314895 -10.35854 1.920867 -8.485544 -37.12856 13.93624 102.8938 -5.760981 -20.32284 -0 0 34.64018 -29.14839 24.8377 12.35922 -3.321789 -29.48909 -18.53032 -84.3053 -2.047651 37.00525 0 0 -30.34294 4.317035 11.74386 5.76264
0.07155075 89.40659 450.8683 -9.217398 -17.9001 -27.03636 10.49774 -6.23204 6.915738 -0 23.76874 -0 -0.434814 -7.458063 -13.0104 2.488157 5.427053 3.805175 -0 33.87104 -0 7.55128 -0.4428486 9.277969 4.816605 -5.842386 9.970664 0.6956193 23.61501 -10.72129 1.013011 15.98782 -1.397871 -2.314895 -10.35854 1.920867 -8.485544 -37.12856 13.93624 102.8938 -5.760981 -20.32284 -0 0 34.64018 -29.14839 24.8377 12.35922 -3.321789 -29.48909 -18.53032 -84.3053 -2.047651 37.00525 0 0 -30.34294 4.317035 11.74386 5.76264
-1.902882 89.43525 457.083 -9.483074 -17.76411 -27.90392 10.49774 -6.23204 6.915738 -0 23.76874 -0 -0.434814 -7.458063 -13.0104 2.488157 5.427053 3.805175 -0 33.87104 -0 7.55128 -0.4428486 9.277969 4.816605 -5.842386 9.970664 0.6956193 23.61501 -10.72129 1.013011 15.98782 -1.397871 -2.314895 -10.35854 1.920867 -8.485544 -37.12856 13.93624 102.8938 -5.760981 -20.32284 -0 0 34.64018 -29.14839 24.8377 12.35922 -3.321789 -29.48909 -18.53032 -84.3053 -2.047651 37.00525 0 0 -30.34294 4.317035 11.74386 5.76264
-3.967888 89.46392 463.2683 -9.746355 -17.62431 -28.77014 10.49774 -6.23204 6.915738 -0 23.76874 -0 -0.434814 -7.458063 -13.0104 2.488157 5.427053 3.805175 -0 33.87104 -0 7.55128 -0.4428486 9.277969 4.816605 -5.842386 9.970664 0.6956193 23.61501 -10.72129 1.013011 15.98782 -1.397871 -2.314895 -10.35854 1.920867 -8.485544 -37.12856 13.93624 102.8938 -5.760981 -20.32284 -0 0 34.64018 -29.14839 24.8377 12.35922 -3.321789 -29.48909 -18.53032 -84.3053 -2.047651 37.00525 0 0 -30.34294 4.317035 11.74386 5.76264
-6.123027 89.49259 469.4227 -10.00718 -17.48074 -29.635 10.49774 -6.23204 6.915738 -0 23.76874 -0 -0.434814 -7.458063 -13.0104 2.488157 5.427053 3.805175 -0 33.87104 -0 7.55128 -0.4428486 9.277969 4.816605 -5.842386 9.970664 0.6956193 23.61501 -10.72129 1.013011 15.98782 -1.397871 -2.314895 -10.35854 1.920867 -8.485544 -37.12856 13.93624 102.8938 -5.760981 -20.32284 -0 0 34.64018 -29.14839 24.8377 12.35922 -3.321789 -29.48909 -18.53032 -84.3053 -2.047651 37.00525 0 0 -30.34294 4.317035 11.74386 5.76264
-8.367838 89.52126 475.5449 -10.26551 -17.33343 -30.49848 10.49774 -6.23204 6.915738 -0 23.76874 -0 -0.434814 -7.458063 -13.0104 2.488157 5.427053 3.805175 -0 33.87104 -0 7.55128 -0.4428486 9.277969 4.816605 -5.842386 9.970664 0.6956193 23.61501 -10.72129 1.013011 15.98782 -1.397871 -2.314895 -10.35854 1.920867 -8.485544 -37.12856 13.93624 102.8938 -5.760981 -20.32284 -0 0 34.64018 -29.14839 24.8377 12.35922 -3.321789 -29.48909 -18.53032 -84.3053 -2.047651 37.00525 0 0 -30.34294 4.317035 11.74386 5.76264
-10.70184 89.54993 481.6338 -10.52127 -17.18243 -31.36056 10.49774 -6.23204 6.915738 -0 23.76874 -0 -0.434814 -7.458063 -13.0104 2.488157 5.427053 3.805175 -0 33.87104 -0 7.55128 -0.4428486 9.277969 4.816605 -5.842386 9.970664 0.6956193 23.61501 -10.72129 1.013011 15.98782 -1.397871 -2.314895 -10.35854 1.920867 -8.485544 -37.12856 13.93624 102.8938 -5.760981 -20.32284 -0 0 34.64018 -29.14839 24.8377 12.35922 -3.321789 -29.48909 -18.53032 -84.3053 -2.047651 37.00525 0 0 -30.34294 4.317035 11.74386 5.76264
